<svg xmlns="http://www.w3.org/2000/svg" viewBox="0 0 256 256" width="512" height="512">
  <rect width="256" height="256" fill="#12121A"/>
  <ellipse cx="128" cy="230" rx="70" ry="40" fill="#1E2430"/>
  <path d="M78 200 Q70 140 88 110 Q100 88 128 84 Q156 88 168 110 Q186 140 178 200 Z" fill="#3A4558"/>
  <ellipse cx="128" cy="118" rx="48" ry="52" fill="#C4A484"/>
  <path d="M82 110 Q90 70 128 64 Q166 70 174 110 Q160 88 128 86 Q96 88 82 110Z" fill="#1A1A22"/>
  
  
  <ellipse cx="110" cy="120" rx="10" ry="12" fill="#FFF"/>
  <ellipse cx="146" cy="120" rx="10" ry="12" fill="#FFF"/>
  <circle cx="112" cy="122" r="5" fill="#5A4634"/>
  <circle cx="148" cy="122" r="5" fill="#5A4634"/>
  
  <path d="M118 148 Q128 154 138 148" stroke="#8A6A52" stroke-width="3" fill="none"/>
  </svg>